<?xml version="1.0" encoding="UTF-8" standalone="no"?>
<!-- Created with Inkscape (http://www.inkscape.org/) -->

<svg
   version="1.1"
   id="svg1"
   width="483.5"
   height="115.2"
   viewBox="0 0 483.5 115.2"
   sodipodi:docname="clipstagram_logo_gradient.svg"
   inkscape:version="1.3.2 (091e20e, 2023-11-25, custom)"
   xml:space="preserve"
   xmlns:inkscape="http://www.inkscape.org/namespaces/inkscape"
   xmlns:sodipodi="http://sodipodi.sourceforge.net/DTD/sodipodi-0.dtd"
   xmlns:xlink="http://www.w3.org/1999/xlink"
   xmlns="http://www.w3.org/2000/svg"
   xmlns:svg="http://www.w3.org/2000/svg"><defs
     id="defs1"><linearGradient
       id="linearGradient1"
       inkscape:collect="always"><stop
         style="stop-color:#017fa5;stop-opacity:1;"
         offset="0"
         id="stop2" /><stop
         style="stop-color:#a83299;stop-opacity:1;"
         offset="1"
         id="stop1" /></linearGradient><rect
       x="98.994949"
       y="15.909902"
       width="71.948112"
       height="16.793785"
       id="rect2" /><rect
       x="105.75"
       y="23.75"
       width="96.625"
       height="53.75"
       id="rect1" /><linearGradient
       inkscape:collect="always"
       xlink:href="#linearGradient1"
       id="linearGradient3"
       gradientUnits="userSpaceOnUse"
       x1="264"
       y1="-25.000002"
       x2="263.5"
       y2="79.75" /></defs><sodipodi:namedview
     id="namedview1"
     pagecolor="#ffffff"
     bordercolor="#999999"
     borderopacity="1"
     inkscape:showpageshadow="2"
     inkscape:pageopacity="0"
     inkscape:pagecheckerboard="0"
     inkscape:deskcolor="#d1d1d1"
     inkscape:zoom="3.9999998"
     inkscape:cx="288.50001"
     inkscape:cy="45.125002"
     inkscape:window-width="3840"
     inkscape:window-height="2054"
     inkscape:window-x="-11"
     inkscape:window-y="-11"
     inkscape:window-maximized="1"
     inkscape:current-layer="g1"
     inkscape:clip-to-page="false" /><g
     inkscape:groupmode="layer"
     inkscape:label="Image"
     id="g1"><circle
       style="display:none;opacity:0.703;fill:#000000;stroke-width:1.18299"
       id="path4"
       cx="82.908264"
       cy="58.42469"
       r="22.141279" /><path
       id="path2"
       style="display:inline;opacity:1;fill:url(#linearGradient3);fill-opacity:1;stroke-width:1.07832;font-variation-settings:'wght' 900;vector-effect:none;stroke-linecap:butt;stroke-linejoin:miter;stroke-miterlimit:4;stroke-dasharray:none;stroke-dashoffset:0;stroke-opacity:1;-inkscape-stroke:none;stop-color:#000000;stop-opacity:1"
       d="M 82.701939,108.75732 C 75.019601,112.6893 66.331343,114.90485 57.13105,114.90485 25.8309,114.90485 0.45711517,89.261668 0.45711517,57.6292 0.45711515,25.996732 25.8309,0.35355275 57.13105,0.35354996 66.311659,0.35354914 74.982422,2.5597669 82.652616,6.476 82.631106,6.8115517 82.632356,19.716628 82.642476,36.460113 67.134421,37.179172 60.99689,50.14984 61.002908,57.45245 c 0.0063,7.601757 3.592825,21.069199 21.718822,23.025149 0.01485,16.056543 -0.01694,28.062151 -0.01979,28.279721 z"
       sodipodi:nodetypes="csssccsccc"
       inkscape:label="polkole lewe" /><path
       id="path6"
       style="display:inline;fill:url(#linearGradient3);fill-opacity:1;stroke-width:1.07832;font-variation-settings:'wght' 900;opacity:1;vector-effect:none;stroke-linecap:butt;stroke-linejoin:miter;stroke-miterlimit:4;stroke-dasharray:none;stroke-dashoffset:0;stroke-opacity:1;-inkscape-stroke:none;stop-color:#000000;stop-opacity:1"
       inkscape:label="trojkat play"
       inkscape:transform-center-x="-2.3756947"
       d="m 76.258255,66.80097 c -0.656979,-0.385058 -0.731169,-16.215144 0,-16.459293 0.989943,-0.330558 14.267251,7.097565 14.254166,8.229646 -0.0152,1.314783 -13.541352,8.64743 -14.254166,8.229647 z"
       sodipodi:nodetypes="ssss" /><path
       style="opacity:1;fill:url(#linearGradient3);fill-opacity:1;font-variation-settings:'wght' 900;vector-effect:none;stroke-width:1.07832;stroke-linecap:butt;stroke-linejoin:miter;stroke-miterlimit:4;stroke-dasharray:none;stroke-dashoffset:0;stroke-opacity:1;-inkscape-stroke:none;stop-color:#000000;stop-opacity:1"
       d="m 82.617187,36.445312 c 0,0 8.285341,-0.619121 14.643034,5.066045 6.157789,5.506408 6.771029,13.269893 6.771029,13.269893 H 93.109374 c 0,0 -1.012419,-3.651829 -3.858932,-5.828472 -2.995511,-2.290577 -6.656693,-1.921528 -6.656693,-1.921528 z"
       id="path7"
       sodipodi:nodetypes="csccscc"
       inkscape:label="play luk dolny" /><path
       style="opacity:1;fill:url(#linearGradient3);fill-opacity:1;font-variation-settings:'wght' 900;vector-effect:none;stroke-width:1.07832;stroke-linecap:butt;stroke-linejoin:miter;stroke-miterlimit:4;stroke-dasharray:none;stroke-dashoffset:0;stroke-opacity:1;-inkscape-stroke:none;stop-color:#000000;stop-opacity:1"
       d="m 82.716087,80.474232 c 0,0 8.28534,0.61912 14.643033,-5.066054 6.15779,-5.506408 6.77103,-13.269882 6.77103,-13.269882 H 93.208273 c 0,0 -1.012419,3.65183 -3.858932,5.828461 -2.995514,2.290577 -6.656694,1.921528 -6.656694,1.921528 z"
       id="path8"
       sodipodi:nodetypes="csccscc"
       inkscape:label="play luk gorny" /><text
       xml:space="preserve"
       style="font-size:60.1301px;font-family:Figtree;-inkscape-font-specification:'Figtree, @wght=900';font-variation-settings:'wght' 900;display:none;fill:#6811f1;fill-opacity:1;stroke-width:1.07832"
       x="104.74335"
       y="79.396141"
       id="text2"
       inkscape:label="Main text"><tspan
         sodipodi:role="line"
         id="tspan1"
         x="0"
         y="0"
         style="fill:#6811f1;fill-opacity:1;stroke-width:1.07832">LIPTOK</tspan></text><path
       d="m 108.35115,79.396141 v -42.09107 h 11.12407 v 31.868953 h 17.31747 v 10.222117 z m 33.25192,0 v -42.09107 h 11.12407 v 42.09107 z m 18.3397,0 v -42.09107 h 17.43773 q 4.75027,0 8.41821,1.864033 3.66794,1.864033 5.71236,5.171189 2.10455,3.307155 2.10455,7.636522 0,4.329368 -2.10455,7.696653 -2.04442,3.307156 -5.71236,5.231319 -3.66794,1.864033 -8.41821,1.864033 h -6.31366 v 12.627321 z m 11.12407,-22.849438 h 6.01301 q 2.28494,0 3.66793,-1.262732 1.44312,-1.262732 1.44312,-3.307156 0,-1.984293 -1.44312,-3.247025 -1.38299,-1.262732 -3.66793,-1.262732 h -6.01301 z m 41.18912,23.570999 q -2.94638,0 -5.77249,-0.781691 -2.82612,-0.841821 -5.17119,-2.284944 -2.28495,-1.443122 -3.7882,-3.247025 -1.50325,-1.864033 -1.8039,-3.908457 l 11.06394,-3.066635 q 0.54117,1.503253 1.86403,2.585594 1.32286,1.022212 3.42742,1.142472 1.68364,0.06013 2.94637,-0.901951 1.32286,-0.962082 1.32286,-2.525464 0,-1.022212 -0.78169,-1.924164 -0.72156,-0.962081 -2.34507,-1.382992 l -6.31366,-1.623513 q -3.24703,-0.841821 -5.5921,-2.585594 -2.28495,-1.743773 -3.54768,-4.269237 -1.2026,-2.525464 -1.2026,-5.652229 0,-6.193401 4.08885,-9.620817 4.14897,-3.487545 11.60511,-3.487545 3.96858,0 6.97509,1.022211 3.06663,1.022212 5.23132,3.247026 2.22481,2.164683 3.66793,5.712359 l -11.00381,3.186896 q -0.30065,-1.202602 -1.56338,-2.405204 -1.2026,-1.202602 -3.30715,-1.202602 -2.04443,0 -3.1869,0.901951 -1.08234,0.901952 -1.08234,2.645725 0,1.082341 0.90195,1.924163 0.90195,0.781691 2.58559,1.202602 l 6.37379,1.623512 q 4.81041,1.202602 7.51627,4.750278 2.70585,3.487546 2.70585,7.997304 0,4.148977 -1.92416,7.035221 -1.86403,2.886245 -5.41171,4.389498 -3.54768,1.503252 -8.47834,1.503252 z m 30.66637,-0.721561 V 47.527188 H 231.01657 V 37.305071 h 34.87545 v 10.222117 h -11.84563 v 31.868953 z m 53.21519,0 -15.3933,-42.09107 h 11.06394 l 16.11486,42.09107 z m -32.41012,0 16.11487,-42.09107 h 11.06393 l -15.3933,42.09107 z m 7.57639,-6.734571 v -9.801207 h 29.10297 v 9.801207 z m 57.66473,7.456132 q -6.49405,0 -11.48485,-2.765984 -4.9908,-2.826115 -7.81692,-7.696653 -2.82611,-4.930668 -2.82611,-11.304459 0,-6.373791 2.82611,-11.244329 2.82612,-4.930668 7.81692,-7.696653 4.9908,-2.826114 11.48485,-2.826114 4.26923,0 7.51626,1.202602 3.30715,1.202602 5.71236,3.307155 2.4052,2.044424 4.08885,4.750278 l -9.26004,5.471839 q -0.84182,-1.322862 -2.16468,-2.345074 -1.26274,-1.022211 -2.82612,-1.563382 -1.50325,-0.601301 -3.06663,-0.601301 -3.12677,0 -5.53197,1.503252 -2.40521,1.443123 -3.7882,4.028717 -1.38299,2.585594 -1.38299,6.01301 0,3.367286 1.32286,6.01301 1.32286,2.645724 3.7882,4.148977 2.52546,1.503252 5.89275,1.503252 2.4052,0 4.26923,-0.841821 1.86404,-0.901951 2.94638,-2.465334 1.08234,-1.623513 1.08234,-3.728066 l 10.5829,-1.984294 q 0,6.373791 -2.46534,10.643028 -2.46533,4.269237 -6.7947,6.373791 -4.26923,2.104553 -9.92146,2.104553 z m -0.78169,-15.874346 v -8.418214 h 19.96319 v 6.1934 l -6.31366,2.224814 z m 24.4729,15.152785 v -42.09107 h 17.43773 q 4.75028,0 8.41821,1.864033 3.66794,1.803903 5.71236,5.050928 2.10456,3.186896 2.10456,7.396003 0,4.209107 -2.10456,7.516262 -2.04442,3.247026 -5.71236,5.111059 -3.66793,1.803903 -8.41821,1.803903 h -6.31366 v 13.348882 z m 22.60892,0 -9.3803,-16.535778 8.35809,-6.25353 13.76979,22.789308 z M 363.7838,55.825142 h 5.71236 q 1.50325,0 2.64572,-0.541171 1.14248,-0.541171 1.80391,-1.503253 0.66143,-0.962081 0.66143,-2.164683 0,-1.803903 -1.44312,-2.946375 -1.383,-1.202602 -3.66794,-1.202602 h -5.71236 z m 58.56674,23.570999 -15.39331,-42.09107 h 11.06394 l 16.11487,42.09107 z m -32.41013,0 16.11487,-42.09107 h 11.06394 l -15.39331,42.09107 z m 7.57639,-6.734571 v -9.801207 h 29.10297 v 9.801207 z m 40.64798,6.734571 v -42.09107 h 12.32667 l 10.16199,15.032525 10.16199,-15.032525 h 12.32667 v 42.09107 H 472.01803 V 54.50228 L 460.71357,70.977927 449.28885,54.50228 v 24.893861 z"
       id="text3"
       style="font-size:60.1301px;font-family:Figtree;-inkscape-font-specification:'Figtree, @wght=900';font-variation-settings:'wght' 900;fill:url(#linearGradient3);stroke-width:1.07832;fill-opacity:1"
       inkscape:label="Main text path"
       aria-label="LIPSTAGRAM" /></g></svg>
