<?xml version="1.0" encoding="UTF-8" standalone="no"?>
<!-- Created with Inkscape (http://www.inkscape.org/) -->

<svg
   version="1.1"
   id="svg1"
   width="321.5"
   height="115.2"
   viewBox="0 0 321.49999 115.2"
   sodipodi:docname="cliptok_logo_vectorized.svg"
   inkscape:version="1.3.2 (091e20e, 2023-11-25, custom)"
   xml:space="preserve"
   xmlns:inkscape="http://www.inkscape.org/namespaces/inkscape"
   xmlns:sodipodi="http://sodipodi.sourceforge.net/DTD/sodipodi-0.dtd"
   xmlns="http://www.w3.org/2000/svg"
   xmlns:svg="http://www.w3.org/2000/svg"><defs
     id="defs1"><rect
       x="116.31906"
       y="3.0052038"
       width="72.655221"
       height="16.263456"
       id="rect2" /><rect
       x="105.75"
       y="23.75"
       width="96.625"
       height="53.75"
       id="rect1" /></defs><sodipodi:namedview
     id="namedview1"
     pagecolor="#ffffff"
     bordercolor="#999999"
     borderopacity="1"
     inkscape:showpageshadow="2"
     inkscape:pageopacity="0"
     inkscape:pagecheckerboard="0"
     inkscape:deskcolor="#d1d1d1"
     inkscape:zoom="4"
     inkscape:cx="55.625"
     inkscape:cy="101.125"
     inkscape:window-width="3840"
     inkscape:window-height="2054"
     inkscape:window-x="-11"
     inkscape:window-y="-11"
     inkscape:window-maximized="1"
     inkscape:current-layer="g1"
     inkscape:clip-to-page="false" /><g
     inkscape:groupmode="layer"
     inkscape:label="Image"
     id="g1"><circle
       style="display:none;opacity:0.703;fill:#000000;stroke-width:1.18299"
       id="path4"
       cx="82.908264"
       cy="58.42469"
       r="22.141279" /><path
       id="path2"
       style="display:inline;opacity:1;fill:#6020f3;fill-opacity:1;stroke-width:0.930141"
       d="M 82.701939,108.75732 C 75.019601,112.6893 66.331343,114.90485 57.13105,114.90485 25.8309,114.90485 0.45711517,89.261668 0.45711517,57.6292 0.45711515,25.996732 25.8309,0.35355275 57.13105,0.35354996 66.311659,0.35354914 74.982422,2.5597669 82.652616,6.476 82.631106,6.8115517 82.632356,19.716628 82.642476,36.460113 67.134421,37.179172 60.99689,50.14984 61.002908,57.45245 c 0.0063,7.601757 3.592825,21.069199 21.718822,23.025149 0.01485,16.056543 -0.01694,28.062151 -0.01979,28.279721 z"
       sodipodi:nodetypes="csssccsccc"
       inkscape:label="polkole lewe" /><path
       sodipodi:type="star"
       style="display:inline;fill:#6020f3;fill-opacity:1"
       id="path6"
       inkscape:flatsided="true"
       sodipodi:sides="3"
       sodipodi:cx="79.3125"
       sodipodi:cy="54.875"
       sodipodi:r1="9.6347351"
       sodipodi:r2="4.8173676"
       sodipodi:arg1="2.0943951"
       sodipodi:arg2="3.1415927"
       inkscape:rounded="0"
       inkscape:randomized="0"
       d="m 74.495132,63.218925 0,-16.68785 14.452103,8.343925 z"
       inkscape:transform-center-x="-2.8570485"
       transform="matrix(1.1861448,0,0,1.1861448,-12.116881,-6.7259145)"
       inkscape:label="trojkat play" /><path
       style="opacity:1;fill:#6020f3;fill-opacity:1"
       d="m 82.617187,36.445312 c 0,0 8.285341,-0.619121 14.643034,5.066045 6.157789,5.506408 6.771029,13.269893 6.771029,13.269893 H 93.109374 c 0,0 -1.012419,-3.651829 -3.858932,-5.828472 -2.995511,-2.290577 -6.656693,-1.921528 -6.656693,-1.921528 z"
       id="path7"
       sodipodi:nodetypes="csccscc"
       inkscape:label="play luk dolny" /><path
       style="opacity:1;fill:#6020f3;fill-opacity:1"
       d="m 82.716087,80.474232 c 0,0 8.28534,0.61912 14.643033,-5.066054 6.15779,-5.506408 6.77103,-13.269882 6.77103,-13.269882 H 93.208273 c 0,0 -1.012419,3.65183 -3.858932,5.828461 -2.995514,2.290577 -6.656694,1.921528 -6.656694,1.921528 z"
       id="path8"
       sodipodi:nodetypes="csccscc"
       inkscape:label="play luk gorny" /><path
       d="M 119.31836,10.84171 V 4.3617096 h -2.4 V 12.76171 h 7.848 v -1.92 z m 6.24,1.92 h 2.4 V 4.3617096 h -2.4 z m 3.42,0 h 2.4 v -2.616 h 1.428 c 2.412,0 3.984,-0.7680004 3.984,-2.9880004 0,-1.848 -1.428,-2.796 -3.984,-2.796 h -3.828 z m 2.4,-6.4800004 h 1.116 c 0.984,0 1.956,-0.108 1.956,0.948 0,1.056 -0.948,0.996 -1.932,0.996 h -1.14 z m 5.83201,-1.92 v 1.92 h 2.916 V 12.76171 h 2.4 V 6.2817096 h 3.12 v -1.92 z m 13.74,8.6880004 c 2.604,0 4.788,-1.836 4.788,-4.4760004 0,-2.64 -2.136,-4.476 -4.788,-4.476 -3.012,0 -4.908,1.824 -4.908,4.476 0,2.6520004 2.004,4.4760004 4.908,4.4760004 z m 0,-1.944 c -1.584,0 -2.52,-1.2000004 -2.52,-2.5320004 0,-1.332 0.828,-2.544 2.52,-2.544 1.62,0 2.388,1.224 2.388,2.544 0,1.32 -0.816,2.5320004 -2.388,2.5320004 z m 5.92801,1.656 h 2.4 V 9.8097096 l 0.48,-0.372 3.132,3.3240004 h 3.48 l -4.848,-4.7160004 4.656,-3.684 h -3.096 l -3.804,3.012 v -3.012 h -2.4 z"
       id="text2"
       style="fill:#6020f3"
       transform="matrix(4.2958836,0,0,5.0067818,-393.48105,15.401176)"
       aria-label="LIPTOK" /></g></svg>
