<?xml version="1.0" encoding="UTF-8" standalone="no"?>
<!-- Created with Inkscape (http://www.inkscape.org/) -->

<svg
   version="1.1"
   id="svg1"
   width="402"
   height="115.2"
   viewBox="0 0 402 115.2"
   sodipodi:docname="clipstagram_logo_gradient.svg"
   inkscape:version="1.3.2 (091e20e, 2023-11-25, custom)"
   xml:space="preserve"
   xmlns:inkscape="http://www.inkscape.org/namespaces/inkscape"
   xmlns:sodipodi="http://sodipodi.sourceforge.net/DTD/sodipodi-0.dtd"
   xmlns:xlink="http://www.w3.org/1999/xlink"
   xmlns="http://www.w3.org/2000/svg"
   xmlns:svg="http://www.w3.org/2000/svg"><defs
     id="defs1"><linearGradient
       id="linearGradient1"
       inkscape:collect="always"><stop
         style="stop-color:#017fa5;stop-opacity:1;"
         offset="0"
         id="stop2" /><stop
         style="stop-color:#a83299;stop-opacity:1;"
         offset="1"
         id="stop1" /></linearGradient><rect
       x="98.994949"
       y="15.909902"
       width="71.948112"
       height="16.793785"
       id="rect2" /><rect
       x="105.75"
       y="23.75"
       width="96.625"
       height="53.75"
       id="rect1" /><linearGradient
       inkscape:collect="always"
       xlink:href="#linearGradient1"
       id="linearGradient3"
       gradientUnits="userSpaceOnUse"
       x1="264"
       y1="-25.000002"
       x2="263.5"
       y2="79.75" /><linearGradient
       inkscape:collect="always"
       xlink:href="#linearGradient1"
       id="linearGradient2"
       gradientUnits="userSpaceOnUse"
       x1="264"
       y1="-25.000002"
       x2="263.5"
       y2="79.75"
       gradientTransform="matrix(0.78178071,0,0,0.78178071,23.644311,15.483228)" /><linearGradient
       inkscape:collect="always"
       xlink:href="#linearGradient1"
       id="linearGradient6"
       gradientUnits="userSpaceOnUse"
       x1="264"
       y1="-25.000002"
       x2="263.5"
       y2="79.75" /><linearGradient
       inkscape:collect="always"
       xlink:href="#linearGradient1"
       id="linearGradient7"
       gradientUnits="userSpaceOnUse"
       x1="264"
       y1="-25.000002"
       x2="263.5"
       y2="79.75" /><linearGradient
       inkscape:collect="always"
       xlink:href="#linearGradient1"
       id="linearGradient8"
       gradientUnits="userSpaceOnUse"
       x1="264"
       y1="-25.000002"
       x2="263.5"
       y2="79.75" /></defs><sodipodi:namedview
     id="namedview1"
     pagecolor="#ffffff"
     bordercolor="#999999"
     borderopacity="1"
     inkscape:showpageshadow="2"
     inkscape:pageopacity="0"
     inkscape:pagecheckerboard="0"
     inkscape:deskcolor="#d1d1d1"
     inkscape:zoom="3.9999998"
     inkscape:cx="288.50001"
     inkscape:cy="45.125002"
     inkscape:window-width="3840"
     inkscape:window-height="2054"
     inkscape:window-x="-11"
     inkscape:window-y="-11"
     inkscape:window-maximized="1"
     inkscape:current-layer="g1"
     inkscape:clip-to-page="false" /><g
     inkscape:groupmode="layer"
     inkscape:label="Image"
     id="g1"><circle
       style="display:none;opacity:0.703;fill:#000000;stroke-width:1.18299"
       id="path4"
       cx="82.908264"
       cy="58.42469"
       r="22.141279" /><path
       id="path2"
       style="font-variation-settings:'wght' 900;display:inline;opacity:1;vector-effect:none;fill:url(#linearGradient6);fill-opacity:1;stroke-width:1.07832;stroke-linecap:butt;stroke-linejoin:miter;stroke-miterlimit:4;stroke-dasharray:none;stroke-dashoffset:0;stroke-opacity:1;-inkscape-stroke:none;stop-color:#000000;stop-opacity:1"
       d="M 82.701939,108.75732 C 75.019601,112.6893 66.331343,114.90485 57.13105,114.90485 25.8309,114.90485 0.45711517,89.261668 0.45711517,57.6292 0.45711515,25.996732 25.8309,0.35355275 57.13105,0.35354996 66.311659,0.35354914 74.982422,2.5597669 82.652616,6.476 82.631106,6.8115517 82.632356,19.716628 82.642476,36.460113 67.134421,37.179172 60.99689,50.14984 61.002908,57.45245 c 0.0063,7.601757 3.592825,21.069199 21.718822,23.025149 0.01485,16.056543 -0.01694,28.062151 -0.01979,28.279721 z"
       sodipodi:nodetypes="csssccsccc"
       inkscape:label="polkole lewe" /><path
       id="path6"
       style="font-variation-settings:'wght' 900;display:inline;opacity:1;vector-effect:none;fill:url(#linearGradient7);fill-opacity:1;stroke-width:1.07832;stroke-linecap:butt;stroke-linejoin:miter;stroke-miterlimit:4;stroke-dasharray:none;stroke-dashoffset:0;stroke-opacity:1;-inkscape-stroke:none;stop-color:#000000;stop-opacity:1"
       inkscape:label="trojkat play"
       inkscape:transform-center-x="-2.3756947"
       d="m 76.258255,66.80097 c -0.656979,-0.385058 -0.731169,-16.215144 0,-16.459293 0.989943,-0.330558 14.267251,7.097565 14.254166,8.229646 -0.0152,1.314783 -13.541352,8.64743 -14.254166,8.229647 z"
       sodipodi:nodetypes="ssss" /><path
       style="font-variation-settings:'wght' 900;opacity:1;vector-effect:none;fill:url(#linearGradient8);fill-opacity:1;stroke-width:1.07832;stroke-linecap:butt;stroke-linejoin:miter;stroke-miterlimit:4;stroke-dasharray:none;stroke-dashoffset:0;stroke-opacity:1;-inkscape-stroke:none;stop-color:#000000;stop-opacity:1"
       d="m 82.617187,36.445312 c 0,0 8.285341,-0.619121 14.643034,5.066045 6.157789,5.506408 6.771029,13.269893 6.771029,13.269893 H 93.109374 c 0,0 -1.012419,-3.651829 -3.858932,-5.828472 -2.995511,-2.290577 -6.656693,-1.921528 -6.656693,-1.921528 z"
       id="path7"
       sodipodi:nodetypes="csccscc"
       inkscape:label="play luk dolny" /><path
       style="font-variation-settings:'wght' 900;opacity:1;vector-effect:none;fill:url(#linearGradient3);fill-opacity:1;stroke-width:1.07832;stroke-linecap:butt;stroke-linejoin:miter;stroke-miterlimit:4;stroke-dasharray:none;stroke-dashoffset:0;stroke-opacity:1;-inkscape-stroke:none;stop-color:#000000;stop-opacity:1"
       d="m 82.716087,80.474232 c 0,0 8.28534,0.61912 14.643033,-5.066054 6.15779,-5.506408 6.77103,-13.269882 6.77103,-13.269882 H 93.208273 c 0,0 -1.012419,3.65183 -3.858932,5.828461 -2.995514,2.290577 -6.656694,1.921528 -6.656694,1.921528 z"
       id="path8"
       sodipodi:nodetypes="csccscc"
       inkscape:label="play luk gorny" /><text
       xml:space="preserve"
       style="font-size:60.1301px;font-family:Figtree;-inkscape-font-specification:'Figtree, @wght=900';font-variation-settings:'wght' 900;display:none;fill:#6811f1;fill-opacity:1;stroke-width:1.07832"
       x="104.74335"
       y="79.396141"
       id="text2"
       inkscape:label="Main text"><tspan
         sodipodi:role="line"
         id="tspan1"
         x="0"
         y="0"
         style="fill:#6811f1;fill-opacity:1;stroke-width:1.07832">LIPTOK</tspan></text><path
       d="M 108.35115,77.5536 V 44.647613 h 8.69658 V 69.562146 H 130.5862 V 77.5536 Z m 25.99571,0 V 44.647613 h 8.69658 V 77.5536 Z m 14.33762,0 V 44.647613 h 13.63248 q 3.71367,0 6.5812,1.457265 2.86752,1.457265 4.46581,4.042736 1.6453,2.58547 1.6453,5.970085 0,3.384617 -1.6453,6.017095 -1.59829,2.585471 -4.46581,4.089745 -2.86753,1.457265 -6.5812,1.457265 h -4.93589 V 77.5536 Z m 8.69659,-17.86325 h 4.70085 q 1.78632,0 2.86752,-0.98718 1.1282,-0.987179 1.1282,-2.585471 0,-1.551282 -1.1282,-2.538461 -1.0812,-0.98718 -2.86752,-0.98718 h -4.70085 z m 32.20086,18.427352 q -2.30343,0 -4.51283,-0.611111 -2.2094,-0.658119 -4.04273,-1.786325 -1.78633,-1.128205 -2.96154,-2.538462 -1.17522,-1.457265 -1.41026,-3.055556 l 8.64958,-2.397436 q 0.42307,1.175214 1.45726,2.021368 1.03419,0.799145 2.67949,0.893162 1.31624,0.04701 2.30342,-0.705128 1.03418,-0.752137 1.03418,-1.974359 0,-0.799145 -0.61111,-1.504274 -0.5641,-0.752136 -1.83333,-1.081197 l -4.9359,-1.269231 q -2.53846,-0.658119 -4.37179,-2.021367 -1.78633,-1.363248 -2.77351,-3.337607 -0.94017,-1.974359 -0.94017,-4.418804 0,-4.841881 3.19658,-7.521369 3.24359,-2.726496 9.07266,-2.726496 3.10256,0 5.45299,0.799145 2.39743,0.799146 4.08974,2.538463 1.73932,1.692307 2.86752,4.465812 l -8.60257,2.491453 q -0.23504,-0.940171 -1.22222,-1.880342 -0.94017,-0.940171 -2.58546,-0.940171 -1.5983,0 -2.49146,0.705128 -0.84615,0.705129 -0.84615,2.068377 0,0.846153 0.70512,1.504274 0.70513,0.61111 2.02137,0.940171 l 4.9829,1.26923 q 3.76069,0.940171 5.87608,3.713676 2.11538,2.726496 2.11538,6.252138 0,3.24359 -1.50427,5.5 -1.45726,2.25641 -4.23077,3.431625 -2.77351,1.175213 -6.6282,1.175213 z M 213.5563,77.5536 V 52.639067 h -9.30769 v -7.991454 h 27.26495 v 7.991454 h -9.26068 V 77.5536 Z m 41.60261,0 -12.03418,-32.905987 h 8.64957 L 264.37259,77.5536 Z m -25.3376,0 12.59829,-32.905987 h 8.64957 L 239.03498,77.5536 Z m 5.92307,-5.264958 v -7.662395 h 22.75214 v 7.662395 z m 45.08117,5.82906 q -5.07692,0 -8.97863,-2.162393 -3.90171,-2.209402 -6.11112,-6.017095 -2.2094,-3.854701 -2.2094,-8.837608 0,-4.982907 2.2094,-8.790599 2.20941,-3.854701 6.11112,-6.017095 3.90171,-2.209402 8.97863,-2.209402 3.33761,0 5.87607,0.940172 2.58547,0.940171 4.46581,2.58547 1.88034,1.598291 3.19659,3.713675 l -7.23932,4.277778 q -0.65812,-1.034188 -1.69231,-1.833333 -0.98718,-0.799145 -2.2094,-1.222222 -1.17522,-0.470086 -2.39744,-0.470086 -2.44444,0 -4.32478,1.175214 -1.88035,1.128205 -2.96154,3.149573 -1.0812,2.021368 -1.0812,4.700855 0,2.632479 1.03419,4.700855 1.03418,2.068376 2.96154,3.243591 1.97435,1.175213 4.60684,1.175213 1.88034,0 3.3376,-0.658119 1.45727,-0.705128 2.30342,-1.927351 0.84615,-1.269231 0.84615,-2.91453 l 8.27351,-1.551283 q 0,4.982907 -1.92735,8.320514 -1.92735,3.337607 -5.31197,4.982907 -3.3376,1.645299 -7.75641,1.645299 z m -0.61111,-12.410257 v -6.581198 h 15.60684 v 4.841881 l -4.9359,1.739317 z M 299.34689,77.5536 V 44.647613 h 13.63248 q 3.71367,0 6.58119,1.457265 2.86752,1.410257 4.46581,3.948718 1.64531,2.491454 1.64531,5.782053 0,3.290598 -1.64531,5.876068 -1.59829,2.538462 -4.46581,3.995728 -2.86752,1.410256 -6.58119,1.410256 h -4.9359 V 77.5536 Z m 17.67521,0 -7.33333,-12.927353 6.53419,-4.888889 10.76495,17.816242 z m -8.97863,-18.427353 h 4.46581 q 1.17521,0 2.06837,-0.423077 0.89317,-0.423077 1.41027,-1.175214 0.51709,-0.752136 0.51709,-1.692307 0,-1.410257 -1.1282,-2.30342 -1.08121,-0.940171 -2.86753,-0.940171 h -4.46581 z M 353.82982,77.5536 341.79562,44.647613 h 8.64958 L 363.04349,77.5536 Z m -25.33762,0 12.5983,-32.905987 h 8.64957 L 337.70588,77.5536 Z m 5.92308,-5.264958 v -7.662395 h 22.75214 v 7.662395 z m 31.7778,5.264958 V 44.647613 h 9.63676 l 7.94444,11.752138 7.94445,-11.752138 h 9.63675 V 77.5536 H 392.6589 V 58.092059 l -8.83761,12.880343 -8.93162,-12.880343 V 77.5536 Z"
       id="text3"
       style="font-size:60.1301px;font-family:Figtree;-inkscape-font-specification:'Figtree, @wght=900';font-variation-settings:'wght' 900;fill:url(#linearGradient2);fill-opacity:1;stroke-width:0.84301"
       inkscape:label="Main text path"
       aria-label="LIPSTAGRAM" /></g></svg>
