<?xml version="1.0" encoding="UTF-8" standalone="no"?>
<!-- Created with Inkscape (http://www.inkscape.org/) -->

<svg
   version="1.1"
   id="svg1"
   width="276"
   height="115.2"
   viewBox="0 0 275.99999 115.2"
   sodipodi:docname="clipyt_logo_vectorized_v1.svg"
   inkscape:version="1.3.2 (091e20e, 2023-11-25, custom)"
   xml:space="preserve"
   xmlns:inkscape="http://www.inkscape.org/namespaces/inkscape"
   xmlns:sodipodi="http://sodipodi.sourceforge.net/DTD/sodipodi-0.dtd"
   xmlns="http://www.w3.org/2000/svg"
   xmlns:svg="http://www.w3.org/2000/svg"><defs
     id="defs1"><rect
       x="98.994948"
       y="15.909902"
       width="71.948114"
       height="16.793786"
       id="rect2" /><rect
       x="105.75"
       y="23.75"
       width="96.625"
       height="53.75"
       id="rect1" /></defs><sodipodi:namedview
     id="namedview1"
     pagecolor="#ffffff"
     bordercolor="#999999"
     borderopacity="1"
     inkscape:showpageshadow="2"
     inkscape:pageopacity="0"
     inkscape:pagecheckerboard="0"
     inkscape:deskcolor="#d1d1d1"
     inkscape:zoom="4.0000001"
     inkscape:cx="73.124998"
     inkscape:cy="73.874998"
     inkscape:window-width="3840"
     inkscape:window-height="2054"
     inkscape:window-x="-11"
     inkscape:window-y="-11"
     inkscape:window-maximized="1"
     inkscape:current-layer="g1"
     inkscape:clip-to-page="false" /><g
     inkscape:groupmode="layer"
     inkscape:label="Image"
     id="g1"><circle
       style="display:none;opacity:0.703;fill:#000000;stroke-width:1.18299"
       id="path4"
       cx="82.908264"
       cy="58.42469"
       r="22.141279" /><path
       id="path2"
       style="display:inline;opacity:1;fill:#fa2162;fill-opacity:1;stroke-width:0.930141"
       d="M 82.701939,108.75732 C 75.019601,112.6893 66.331343,114.90485 57.13105,114.90485 25.8309,114.90485 0.45711517,89.261668 0.45711517,57.6292 0.45711515,25.996732 25.8309,0.35355275 57.13105,0.35354996 66.311659,0.35354914 74.982422,2.5597669 82.652616,6.476 82.631106,6.8115517 82.632356,19.716628 82.642476,36.460113 67.134421,37.179172 60.99689,50.14984 61.002908,57.45245 c 0.0063,7.601757 3.592825,21.069199 21.718822,23.025149 0.01485,16.056543 -0.01694,28.062151 -0.01979,28.279721 z"
       sodipodi:nodetypes="csssccsccc"
       inkscape:label="polkole lewe" /><path
       sodipodi:type="star"
       style="display:inline;fill:#fa2162;fill-opacity:1"
       id="path6"
       inkscape:flatsided="true"
       sodipodi:sides="3"
       sodipodi:cx="79.3125"
       sodipodi:cy="54.875"
       sodipodi:r1="9.6347351"
       sodipodi:r2="4.8173676"
       sodipodi:arg1="2.0943951"
       sodipodi:arg2="3.1415927"
       inkscape:rounded="0"
       inkscape:randomized="0"
       d="m 74.495132,63.218925 0,-16.68785 14.452103,8.343925 z"
       inkscape:transform-center-x="-2.8570485"
       transform="matrix(1.1861448,0,0,1.1861448,-12.116881,-6.7259145)"
       inkscape:label="trojkat play" /><path
       style="opacity:1;fill:#fa2162;fill-opacity:1"
       d="m 82.617187,36.445312 c 0,0 8.285341,-0.619121 14.643034,5.066045 6.157789,5.506408 6.771029,13.269893 6.771029,13.269893 H 93.109374 c 0,0 -1.012419,-3.651829 -3.858932,-5.828472 -2.995511,-2.290577 -6.656693,-1.921528 -6.656693,-1.921528 z"
       id="path7"
       sodipodi:nodetypes="csccscc"
       inkscape:label="play luk dolny" /><path
       style="opacity:1;fill:#fa2162;fill-opacity:1"
       d="m 82.716087,80.474232 c 0,0 8.28534,0.61912 14.643033,-5.066054 6.15779,-5.506408 6.77103,-13.269882 6.77103,-13.269882 H 93.208273 c 0,0 -1.012419,3.65183 -3.858932,5.828461 -2.995514,2.290577 -6.656694,1.921528 -6.656694,1.921528 z"
       id="path8"
       sodipodi:nodetypes="csccscc"
       inkscape:label="play luk gorny" /><path
       d="m 101.99414,23.746006 v -6.48 h -2.399999 v 8.4 h 7.847999 v -1.92 z m 6.24,1.92 h 2.4 v -8.4 h -2.4 z m 3.42001,0 h 2.4 v -2.616 h 1.428 c 2.412,0 3.984,-0.768 3.984,-2.988 0,-1.848 -1.428,-2.796 -3.984,-2.796 h -3.828 z m 2.4,-6.48 h 1.116 c 0.984,0 1.956,-0.108 1.956,0.948 0,1.056 -0.948,0.996 -1.932,0.996 h -1.14 z m 5.35199,-1.92 3.612,4.692 v 3.708 h 2.4 v -3.708 l 3.612,-4.692 h -2.856 l -1.956,2.904 -1.956,-2.904 z m 10.40401,0 v 1.92 h 2.916 v 6.48 h 2.4 v -6.48 h 3.12 v -1.92 z"
       id="text2"
       style="display:none;fill:#fa2162"
       transform="matrix(4.2746582,0,0,5.0148385,-317.12117,-49.521238)"
       aria-label="LIPYT" /><path
       style="font-size:60.5119px;font-family:Figtree;-inkscape-font-specification:'Figtree, @wght=900';font-variation-settings:'wght' 900;fill:#fa2162;stroke-width:1.08516"
       d="M 107.38433,79.265266 V 36.906935 h 10.89214 v 42.358331 z m 16.94336,0 V 49.009315 h 10.89214 v 30.255951 z m 5.44607,-33.160522 q -2.42048,0 -4.23583,-1.815357 -1.81536,-1.815357 -1.81536,-4.235833 0,-2.480988 1.81536,-4.235833 1.81535,-1.815357 4.23583,-1.815357 2.48099,0 4.23583,1.815357 1.81536,1.754845 1.81536,4.235833 0,2.420476 -1.81536,4.235833 -1.75484,1.815357 -4.23583,1.815357 z m 11.79988,45.262903 V 49.009315 h 10.28702 l 0.60512,5.567095 v 36.791237 z m 19.00073,-11.376238 q -3.75173,0 -6.23272,-1.875869 -2.42048,-1.875869 -3.63072,-5.446071 -1.14972,-3.570202 -1.14972,-8.532178 0,-5.022488 1.14972,-8.532178 1.21024,-3.570202 3.63072,-5.446071 2.48099,-1.875869 6.23272,-1.875869 4.29635,0 7.32194,1.875869 3.08611,1.875869 4.71993,5.446071 1.63382,3.50969 1.63382,8.532178 0,4.961976 -1.63382,8.532178 -1.63382,3.570202 -4.71993,5.446071 -3.02559,1.875869 -7.32194,1.875869 z M 157.6698,69.946434 q 1.5128,0 2.66253,-0.726143 1.14972,-0.786655 1.81535,-2.057405 0.72615,-1.331262 0.72615,-3.025595 0,-1.694333 -0.66563,-2.965083 -0.66563,-1.331262 -1.81536,-2.057405 -1.14973,-0.726143 -2.66252,-0.726143 -1.5128,0 -2.72304,0.726143 -1.21024,0.726143 -1.87587,2.057405 -0.66563,1.27075 -0.66563,2.965083 0,1.694333 0.66563,3.025595 0.66563,1.27075 1.81536,2.057405 1.21024,0.726143 2.72303,0.726143 z m 43.75014,-8.048083 -10.95265,-1.875869 13.49415,-23.115547 h 12.7075 z M 190.64882,79.265266 V 58.933267 h 11.1947 v 20.331999 z m 0.36307,-17.366915 -15.249,-24.991416 h 12.7075 l 13.49416,23.115547 z m 38.96972,17.366915 V 47.193958 H 218.00025 V 36.906935 h 35.09691 v 10.287023 h -11.92085 v 32.071308 z"
       id="text1"
       inkscape:label="Main text Figtree"
       aria-label="lipYT" /></g></svg>
