<?xml version="1.0" encoding="UTF-8" standalone="no"?>
<!-- Created with Inkscape (http://www.inkscape.org/) -->

<svg
   version="1.1"
   id="svg1"
   width="355"
   height="115.2"
   viewBox="0 0 354.99999 115.2"
   sodipodi:docname="clipable_logo_vectorized.svg"
   inkscape:version="1.3.2 (091e20e, 2023-11-25, custom)"
   xml:space="preserve"
   xmlns:inkscape="http://www.inkscape.org/namespaces/inkscape"
   xmlns:sodipodi="http://sodipodi.sourceforge.net/DTD/sodipodi-0.dtd"
   xmlns="http://www.w3.org/2000/svg"
   xmlns:svg="http://www.w3.org/2000/svg"><defs
     id="defs1"><rect
       x="117.37972"
       y="4.596194"
       width="80.079842"
       height="20.85965"
       id="rect13" /><rect
       x="105.75"
       y="23.75"
       width="96.625"
       height="53.75"
       id="rect1" /></defs><sodipodi:namedview
     id="namedview1"
     pagecolor="#ffffff"
     bordercolor="#999999"
     borderopacity="1"
     inkscape:showpageshadow="2"
     inkscape:pageopacity="0"
     inkscape:pagecheckerboard="0"
     inkscape:deskcolor="#d1d1d1"
     inkscape:zoom="5.6568543"
     inkscape:cx="188.70912"
     inkscape:cy="55.242717"
     inkscape:window-width="3840"
     inkscape:window-height="2054"
     inkscape:window-x="-11"
     inkscape:window-y="-11"
     inkscape:window-maximized="1"
     inkscape:current-layer="g1"
     inkscape:clip-to-page="false" /><g
     inkscape:groupmode="layer"
     inkscape:label="Image"
     id="g1"><path
       style="display:none;fill:#1ca0f1"
       d="M 48.617109,113.76919 C 33.790671,111.3562 21.03867,103.87131 12.08269,92.325031 -0.60134005,75.97245 -3.2843697,53.578063 5.1191672,34.202742 17.460556,5.74825 51.952787,-7.3161757 80.720001,5.5678455 l 1.84,0.8240839 V 21.435964 36.479999 h 1.868812 c 6.610284,0 13.966712,4.504097 17.102327,10.471189 0.98783,1.879829 2.46886,6.37898 2.46886,7.499999 0,0.147846 -2.42823,0.268812 -5.39607,0.268812 h -5.396071 l -1.019861,-2.071632 c -1.607459,-3.265212 -5.096656,-5.608368 -8.351429,-5.608368 h -1.276568 v -5.165106 -5.165107 l -2.64,0.165422 c -12.598784,0.789436 -21.305688,13.590965 -18.332683,26.954055 2.030173,9.125241 10.332617,16.143304 19.124557,16.166005 l 1.831875,0.0047 0.08812,-5.038974 0.08813,-5.038974 1.823979,-0.227517 c 3.627653,-0.4525 7.005877,-3.090739 8.175895,-6.385 L 93.27022,61.759968 H 98.63511 104 V 62.4864 c 0,8.614419 -10.117419,17.833568 -19.571187,17.833568 h -1.868812 v 14.084035 14.084037 l -1.84,0.82408 c -9.256437,4.1457 -22.61778,6.00073 -32.102892,4.45704 z M 160.32,58.559998 V 37.439999 h 12.3301 12.33009 l 1.93509,0.651885 c 13.35692,4.499621 13.35692,23.956609 0,28.456229 -1.71963,0.579303 -2.73787,0.651885 -9.14518,0.651885 H 170.56 v 6.24 6.24 h -5.12 -5.12 z m 23.44776,-2.192114 c 1.4831,-0.920579 2.20558,-2.246544 2.20558,-4.047885 0,-1.801342 -0.72248,-3.127307 -2.20558,-4.047886 l -1.20776,-0.749674 -6,-0.115725 -6,-0.115725 v 5.02901 5.029009 l 6,-0.115725 6,-0.115725 z m 9.929,23.072114 c 0.074,-0.132 2.96248,-4.866388 6.41888,-10.520863 3.4564,-5.654474 6.28436,-10.388086 6.28436,-10.519137 0,-0.13105 -2.82796,-4.864662 -6.28436,-10.519136 -3.4564,-5.654475 -6.3449,-10.388863 -6.41888,-10.520863 -0.074,-0.132 2.57906,-0.24 5.89567,-0.24 h 6.0302 l 4.58486,7.84 c 2.52168,4.312 4.67659,7.83627 4.78869,7.831711 0.1121,-0.0046 2.2375,-3.496559 4.72311,-7.76 l 4.51928,-7.751711 5.82559,-0.08731 c 4.69921,-0.07043 5.80531,-0.0056 5.72072,0.335331 -0.0577,0.232455 -2.89027,4.979576 -6.29463,10.549158 -3.40436,5.569581 -6.17277,10.242682 -6.15201,10.384668 0.0208,0.141987 2.80615,4.787258 6.18975,10.322826 3.38361,5.535568 6.19921,10.25486 6.25689,10.487315 0.0846,0.340922 -1.02096,0.405762 -5.71751,0.335331 l -5.82238,-0.08732 -4.41086,-7.52 c -2.42598,-4.136 -4.6051,-7.555406 -4.8425,-7.59868 -0.26153,-0.04767 -2.19243,2.947321 -4.89979,7.6 l -4.46816,7.67868 h -6.03073 c -3.31689,0 -5.97018,-0.108 -5.89619,-0.24 z m -85.21676,-21.2 V 37.119999 h 5.12 5.12 v 16.16 16.159999 h 10.4 10.4 v 4.96 4.96 H 124 108.48 Z m 34.88,0.16 V 37.439999 h 5.12 5.12 v 20.959999 20.96 h -5.12 -5.12 z M 76.321161,47.679999 c 2.710482,1.558693 15.33579,9.235713 17.434591,10.686365 0.396458,0.274025 -16.645481,10.676397 -17.34587,10.433634 -0.133334,-0.04622 -0.292484,-21.237175 -0.08872,-21.119999 z"
       id="path1"
       sodipodi:nodetypes="cssscccsssscsscccssccccsscccsscccsccccccsssccccccssscccccccssssssscssscssssssscssscssccccccccccccccccccccccssss" /><circle
       style="display:none;opacity:0.703;fill:#000000;stroke-width:1.18299"
       id="path4"
       cx="82.908264"
       cy="58.42469"
       r="22.141279" /><path
       id="path2"
       style="display:inline;opacity:1;fill:#2a7fff;fill-opacity:1;stroke-width:0.930141"
       d="M 82.701939,108.75732 C 75.019601,112.6893 66.331343,114.90485 57.13105,114.90485 25.8309,114.90485 0.45711517,89.261668 0.45711517,57.6292 0.45711515,25.996732 25.8309,0.35355275 57.13105,0.35354996 66.311659,0.35354914 74.982422,2.5597669 82.652616,6.476 82.631106,6.8115517 82.632356,19.716628 82.642476,36.460113 67.134421,37.179172 60.99689,50.14984 61.002908,57.45245 c 0.0063,7.601757 3.592825,21.069199 21.718822,23.025149 0.01485,16.056543 -0.01694,28.062151 -0.01979,28.279721 z"
       sodipodi:nodetypes="csssccsccc"
       inkscape:label="polkole lewe" /><path
       sodipodi:type="star"
       style="display:inline;fill:#2a7fff;fill-opacity:1"
       id="path6"
       inkscape:flatsided="true"
       sodipodi:sides="3"
       sodipodi:cx="79.3125"
       sodipodi:cy="54.875"
       sodipodi:r1="9.6347351"
       sodipodi:r2="4.8173676"
       sodipodi:arg1="2.0943951"
       sodipodi:arg2="3.1415927"
       inkscape:rounded="0"
       inkscape:randomized="0"
       d="m 74.495132,63.218925 0,-16.68785 14.452103,8.343925 z"
       inkscape:transform-center-x="-2.8570485"
       transform="matrix(1.1861448,0,0,1.1861448,-12.116881,-6.7259145)"
       inkscape:label="trojkat play" /><path
       style="opacity:1;fill:#2a7fff;fill-opacity:1"
       d="m 82.617187,36.445312 c 0,0 8.285341,-0.619121 14.643034,5.066045 6.157789,5.506408 6.771029,13.269893 6.771029,13.269893 H 93.109374 c 0,0 -1.012419,-3.651829 -3.858932,-5.828472 -2.995511,-2.290577 -6.656693,-1.921528 -6.656693,-1.921528 z"
       id="path7"
       sodipodi:nodetypes="csccscc"
       inkscape:label="play luk dolny" /><path
       style="opacity:1;fill:#2a7fff;fill-opacity:1"
       d="m 82.716087,80.474232 c 0,0 8.28534,0.61912 14.643033,-5.066054 6.15779,-5.506408 6.77103,-13.269882 6.77103,-13.269882 H 93.208273 c 0,0 -1.012419,3.65183 -3.858932,5.828461 -2.995514,2.290577 -6.656694,1.921528 -6.656694,1.921528 z"
       id="path8"
       sodipodi:nodetypes="csccscc"
       inkscape:label="play luk gorny" /><path
       d="M 120.37891,12.431553 V 5.9515534 h -2.4 v 8.3999996 h 7.848 v -1.92 z m 6.23999,1.92 h 2.4 V 5.9515534 h -2.4 z m 3.42001,0 h 2.4 v -2.616 h 1.428 c 2.412,0 3.984,-0.768 3.984,-2.9879996 0,-1.848 -1.428,-2.796 -3.984,-2.796 h -3.828 z m 2.4,-6.4799996 h 1.116 c 0.984,0 1.956,-0.108 1.956,0.948 0,1.056 -0.948,0.996 -1.932,0.996 h -1.14 z m 4.476,6.4799996 h 2.592 l 0.6,-1.236 h 4.62 l 0.6,1.236 h 2.712 l -4.332,-8.3999996 h -2.46 z m 5.508,-5.9879996 1.368,2.8319996 h -2.748 z m 6.336,5.9879996 h 4.716 c 1.608,0 3.12,-0.492 3.12,-2.196 0,-0.888 -0.444,-1.56 -1.62,-1.836 0.924,-0.312 1.476,-0.9239996 1.476,-2.0519996 0,-1.476 -1.464,-2.316 -3.384,-2.316 h -4.308 z m 2.4,-6.4799996 h 1.704 c 0.78,0 1.272,0.12 1.272,0.756 0,0.636 -0.42,0.768 -1.356,0.768 h -1.62 z m 0,3.1559996 h 1.056 c 1.644,-0.012 2.064,0.084 2.064,0.696 0,0.636 -0.42,0.708 -2.064,0.708 h -1.056 z m 8.73601,1.404 V 5.9515534 h -2.4 v 8.3999996 h 7.848 v -1.92 z m 6.16801,1.92 h 7.848 v -1.92 h -5.448 v -1.272 h 5.448 V 9.2635534 h -5.448 v -1.392 h 5.448 v -1.92 h -7.848 z"
       id="text13"
       style="fill:#2a7fff;fill-opacity:1"
       transform="matrix(4.3976055,0,0,5.0322649,-410.21494,6.9376824)" /></g></svg>
