<?xml version="1.0" encoding="UTF-8" standalone="no"?>
<!-- Created with Inkscape (http://www.inkscape.org/) -->

<svg
   version="1.1"
   id="svg1"
   width="272.5"
   height="115.2"
   viewBox="0 0 272.5 115.2"
   sodipodi:docname="clipyt_logo_gradient.svg"
   inkscape:version="1.3.2 (091e20e, 2023-11-25, custom)"
   xml:space="preserve"
   xmlns:inkscape="http://www.inkscape.org/namespaces/inkscape"
   xmlns:sodipodi="http://sodipodi.sourceforge.net/DTD/sodipodi-0.dtd"
   xmlns:xlink="http://www.w3.org/1999/xlink"
   xmlns="http://www.w3.org/2000/svg"
   xmlns:svg="http://www.w3.org/2000/svg"><defs
     id="defs1"><linearGradient
       id="linearGradient7"><stop
         style="stop-color:#a50189;stop-opacity:0.99910396;"
         offset="0"
         id="stop10" /><stop
         style="stop-color:#fa2162;stop-opacity:1;"
         offset="1"
         id="stop9" /></linearGradient><rect
       x="98.994949"
       y="15.909902"
       width="71.948112"
       height="16.793785"
       id="rect2" /><rect
       x="105.75"
       y="23.75"
       width="96.625"
       height="53.75"
       id="rect1" /><linearGradient
       inkscape:collect="always"
       xlink:href="#linearGradient7"
       id="linearGradient1"
       gradientUnits="userSpaceOnUse"
       x1="44.25"
       y1="-49.5"
       x2="44.25"
       y2="95.25"
       spreadMethod="pad" /><linearGradient
       inkscape:collect="always"
       xlink:href="#linearGradient7"
       id="linearGradient2"
       gradientUnits="userSpaceOnUse"
       x1="44.25"
       y1="-49.5"
       x2="44.25"
       y2="95.25"
       spreadMethod="pad" /><linearGradient
       inkscape:collect="always"
       xlink:href="#linearGradient7"
       id="linearGradient3"
       gradientUnits="userSpaceOnUse"
       x1="44.25"
       y1="-49.5"
       x2="44.25"
       y2="95.25"
       spreadMethod="pad" /><linearGradient
       inkscape:collect="always"
       xlink:href="#linearGradient7"
       id="linearGradient4"
       gradientUnits="userSpaceOnUse"
       x1="44.25"
       y1="-49.5"
       x2="44.25"
       y2="95.25"
       spreadMethod="pad" /><linearGradient
       inkscape:collect="always"
       xlink:href="#linearGradient7"
       id="linearGradient5"
       gradientUnits="userSpaceOnUse"
       x1="44.25"
       y1="-49.5"
       x2="44.25"
       y2="95.25"
       spreadMethod="pad" /></defs><sodipodi:namedview
     id="namedview1"
     pagecolor="#ffffff"
     bordercolor="#999999"
     borderopacity="1"
     inkscape:showpageshadow="2"
     inkscape:pageopacity="0"
     inkscape:pagecheckerboard="0"
     inkscape:deskcolor="#d1d1d1"
     inkscape:zoom="4"
     inkscape:cx="-16.75"
     inkscape:cy="74.375"
     inkscape:window-width="3840"
     inkscape:window-height="2054"
     inkscape:window-x="-11"
     inkscape:window-y="-11"
     inkscape:window-maximized="1"
     inkscape:current-layer="g1"
     inkscape:clip-to-page="false" /><g
     inkscape:groupmode="layer"
     inkscape:label="Image"
     id="g1"><circle
       style="display:none;opacity:0.703;fill:#000000;stroke-width:1.18299"
       id="path4"
       cx="82.908264"
       cy="58.42469"
       r="22.141279" /><path
       id="path2"
       style="display:inline;opacity:1;fill:url(#linearGradient2);fill-opacity:1;stroke-width:1.085;font-variation-settings:'wght' 900;stroke-linecap:butt;stroke-linejoin:miter;stroke-miterlimit:4;stroke-dasharray:none;stroke-dashoffset:0;stroke-opacity:1;stop-color:#000000;stop-opacity:1;vector-effect:none;-inkscape-stroke:none"
       d="M 82.701939,108.75732 C 75.019601,112.6893 66.331343,114.90485 57.13105,114.90485 25.8309,114.90485 0.45711517,89.261668 0.45711517,57.6292 0.45711515,25.996732 25.8309,0.35355275 57.13105,0.35354996 66.311659,0.35354914 74.982422,2.5597669 82.652616,6.476 82.631106,6.8115517 82.632356,19.716628 82.642476,36.460113 67.134421,37.179172 60.99689,50.14984 61.002908,57.45245 c 0.0063,7.601757 3.592825,21.069199 21.718822,23.025149 0.01485,16.056543 -0.01694,28.062151 -0.01979,28.279721 z"
       sodipodi:nodetypes="csssccsccc"
       inkscape:label="polkole lewe" /><path
       id="path6"
       style="display:inline;fill:url(#linearGradient3);stroke-width:1.085;fill-opacity:1;font-variation-settings:'wght' 900;opacity:1;vector-effect:none;stroke-linecap:butt;stroke-linejoin:miter;stroke-miterlimit:4;stroke-dasharray:none;stroke-dashoffset:0;stroke-opacity:1;-inkscape-stroke:none;stop-color:#000000;stop-opacity:1"
       inkscape:label="trojkat play"
       inkscape:transform-center-x="-2.3756947"
       d="m 76.258255,66.80097 c -0.656979,-0.385058 -0.731169,-16.215144 0,-16.459293 0.989943,-0.330558 14.267251,7.097565 14.254166,8.229646 -0.0152,1.314783 -13.541352,8.64743 -14.254166,8.229647 z"
       sodipodi:nodetypes="ssss" /><path
       style="opacity:1;fill:url(#linearGradient4);fill-opacity:1;font-variation-settings:'wght' 900;vector-effect:none;stroke-width:1.085;stroke-linecap:butt;stroke-linejoin:miter;stroke-miterlimit:4;stroke-dasharray:none;stroke-dashoffset:0;stroke-opacity:1;-inkscape-stroke:none;stop-color:#000000;stop-opacity:1"
       d="m 82.617187,36.445312 c 0,0 8.285341,-0.619121 14.643034,5.066045 6.157789,5.506408 6.771029,13.269893 6.771029,13.269893 H 93.109374 c 0,0 -1.012419,-3.651829 -3.858932,-5.828472 -2.995511,-2.290577 -6.656693,-1.921528 -6.656693,-1.921528 z"
       id="path7"
       sodipodi:nodetypes="csccscc"
       inkscape:label="play luk dolny" /><path
       style="opacity:1;fill:url(#linearGradient5);fill-opacity:1;font-variation-settings:'wght' 900;vector-effect:none;stroke-width:1.085;stroke-linecap:butt;stroke-linejoin:miter;stroke-miterlimit:4;stroke-dasharray:none;stroke-dashoffset:0;stroke-opacity:1;-inkscape-stroke:none;stop-color:#000000;stop-opacity:1"
       d="m 82.716087,80.474232 c 0,0 8.28534,0.61912 14.643033,-5.066054 6.15779,-5.506408 6.77103,-13.269882 6.77103,-13.269882 H 93.208273 c 0,0 -1.012419,3.65183 -3.858932,5.828461 -2.995514,2.290577 -6.656694,1.921528 -6.656694,1.921528 z"
       id="path8"
       sodipodi:nodetypes="csccscc"
       inkscape:label="play luk gorny" /><path
       d="m 101.99414,23.746006 v -6.48 h -2.399999 v 8.4 h 7.847999 v -1.92 z m 6.24,1.92 h 2.4 v -8.4 h -2.4 z m 3.42001,0 h 2.4 v -2.616 h 1.428 c 2.412,0 3.984,-0.768 3.984,-2.988 0,-1.848 -1.428,-2.796 -3.984,-2.796 h -3.828 z m 2.4,-6.48 h 1.116 c 0.984,0 1.956,-0.108 1.956,0.948 0,1.056 -0.948,0.996 -1.932,0.996 h -1.14 z m 5.35199,-1.92 3.612,4.692 v 3.708 h 2.4 v -3.708 l 3.612,-4.692 h -2.856 l -1.956,2.904 -1.956,-2.904 z m 10.40401,0 v 1.92 h 2.916 v 6.48 h 2.4 v -6.48 h 3.12 v -1.92 z"
       id="text2"
       style="display:none;fill:#fa2162"
       transform="matrix(4.2746582,0,0,5.0148385,-317.12117,-49.521238)"
       aria-label="LIPYT" /><path
       style="font-size:60.5119px;font-family:Figtree;-inkscape-font-specification:'Figtree, @wght=900';font-variation-settings:'wght' 900;fill:url(#linearGradient1);stroke-width:1.085;fill-rule:nonzero;fill-opacity:1;opacity:1;vector-effect:none;stroke-linecap:butt;stroke-linejoin:miter;stroke-miterlimit:4;stroke-dasharray:none;stroke-dashoffset:0;stroke-opacity:1;-inkscape-stroke:none;stop-color:#000000;stop-opacity:1"
       d="M 108.29201,79.265266 V 36.906935 h 11.1947 v 32.071308 h 17.42743 v 10.287023 z m 33.46305,0 V 36.906935 h 11.1947 v 42.358331 z m 18.45614,0 V 36.906935 h 17.54846 q 4.78044,0 8.47166,1.875869 3.69123,1.875869 5.74863,5.204024 2.11792,3.328154 2.11792,7.685011 0,4.356857 -2.11792,7.745524 -2.0574,3.328154 -5.74863,5.264535 -3.69122,1.875869 -8.47166,1.875869 h -6.35375 v 12.707499 z m 11.19471,-22.994522 h 6.05119 q 2.29945,0 3.69122,-1.27075 1.45229,-1.27075 1.45229,-3.328155 0,-1.996893 -1.45229,-3.267643 -1.39177,-1.270749 -3.69122,-1.270749 h -6.05119 z m 48.95412,5.627607 -10.95265,-1.875869 13.49415,-23.115547 h 12.7075 z M 209.58892,79.265266 V 58.933267 h 11.1947 v 20.331999 z m 0.36307,-17.366915 -15.249,-24.991416 h 12.7075 l 13.49415,23.115547 z M 248.9217,79.265266 V 47.193958 H 236.94035 V 36.906935 h 35.0969 V 47.193958 H 260.1164 v 32.071308 z"
       id="text1"
       inkscape:label="Main text Figtree"
       aria-label="LIPYT" /></g></svg>
