<?xml version="1.0" encoding="UTF-8" standalone="no"?>
<!-- Created with Inkscape (http://www.inkscape.org/) -->

<svg
   version="1.1"
   id="svg1"
   width="321.5"
   height="115.2"
   viewBox="0 0 321.5 115.2"
   sodipodi:docname="cliptok_logo_vectorized.svg"
   inkscape:version="1.3.2 (091e20e, 2023-11-25, custom)"
   xml:space="preserve"
   xmlns:inkscape="http://www.inkscape.org/namespaces/inkscape"
   xmlns:sodipodi="http://sodipodi.sourceforge.net/DTD/sodipodi-0.dtd"
   xmlns="http://www.w3.org/2000/svg"
   xmlns:svg="http://www.w3.org/2000/svg"><defs
     id="defs1"><rect
       x="98.994949"
       y="15.909902"
       width="71.948112"
       height="16.793785"
       id="rect2" /><rect
       x="105.75"
       y="23.75"
       width="96.625"
       height="53.75"
       id="rect1" /></defs><sodipodi:namedview
     id="namedview1"
     pagecolor="#ffffff"
     bordercolor="#999999"
     borderopacity="1"
     inkscape:showpageshadow="2"
     inkscape:pageopacity="0"
     inkscape:pagecheckerboard="0"
     inkscape:deskcolor="#d1d1d1"
     inkscape:zoom="4"
     inkscape:cx="128.625"
     inkscape:cy="28.875"
     inkscape:window-width="3840"
     inkscape:window-height="2054"
     inkscape:window-x="-11"
     inkscape:window-y="-11"
     inkscape:window-maximized="1"
     inkscape:current-layer="g1"
     inkscape:clip-to-page="false" /><g
     inkscape:groupmode="layer"
     inkscape:label="Image"
     id="g1"><circle
       style="display:none;opacity:0.703;fill:#000000;stroke-width:1.18299"
       id="path4"
       cx="82.908264"
       cy="58.42469"
       r="22.141279" /><path
       id="path2"
       style="display:inline;opacity:1;fill:#6811f1;fill-opacity:1;stroke-width:0.930141"
       d="M 82.701939,108.75732 C 75.019601,112.6893 66.331343,114.90485 57.13105,114.90485 25.8309,114.90485 0.45711517,89.261668 0.45711517,57.6292 0.45711515,25.996732 25.8309,0.35355275 57.13105,0.35354996 66.311659,0.35354914 74.982422,2.5597669 82.652616,6.476 82.631106,6.8115517 82.632356,19.716628 82.642476,36.460113 67.134421,37.179172 60.99689,50.14984 61.002908,57.45245 c 0.0063,7.601757 3.592825,21.069199 21.718822,23.025149 0.01485,16.056543 -0.01694,28.062151 -0.01979,28.279721 z"
       sodipodi:nodetypes="csssccsccc"
       inkscape:label="polkole lewe" /><path
       id="path6"
       style="display:inline;fill:#6811f1;fill-opacity:1;stroke-width:0.986304"
       inkscape:label="trojkat play"
       inkscape:transform-center-x="-2.3756947"
       d="m 76.258255,66.80097 c -0.656979,-0.385058 -0.731169,-16.215144 0,-16.459293 0.989943,-0.330558 14.267251,7.097565 14.254166,8.229646 -0.0152,1.314783 -13.541352,8.64743 -14.254166,8.229647 z"
       sodipodi:nodetypes="ssss" /><path
       style="opacity:1;fill:#6811f1;fill-opacity:1"
       d="m 82.617187,36.445312 c 0,0 8.285341,-0.619121 14.643034,5.066045 6.157789,5.506408 6.771029,13.269893 6.771029,13.269893 H 93.109374 c 0,0 -1.012419,-3.651829 -3.858932,-5.828472 -2.995511,-2.290577 -6.656693,-1.921528 -6.656693,-1.921528 z"
       id="path7"
       sodipodi:nodetypes="csccscc"
       inkscape:label="play luk dolny" /><path
       style="opacity:1;fill:#6811f1;fill-opacity:1"
       d="m 82.716087,80.474232 c 0,0 8.28534,0.61912 14.643033,-5.066054 6.15779,-5.506408 6.77103,-13.269882 6.77103,-13.269882 H 93.208273 c 0,0 -1.012419,3.65183 -3.858932,5.828461 -2.995514,2.290577 -6.656694,1.921528 -6.656694,1.921528 z"
       id="path8"
       sodipodi:nodetypes="csccscc"
       inkscape:label="play luk gorny" /><path
       d="m 108.35115,79.396141 v -42.09107 h 11.12407 v 31.868953 h 17.31747 v 10.222117 z m 33.25192,0 v -42.09107 h 11.12407 v 42.09107 z m 18.3397,0 v -42.09107 h 17.43773 q 4.75027,0 8.41821,1.864033 3.66794,1.864033 5.71236,5.171189 2.10455,3.307155 2.10455,7.636522 0,4.329368 -2.10455,7.696653 -2.04442,3.307156 -5.71236,5.231319 -3.66794,1.864033 -8.41821,1.864033 h -6.31366 v 12.627321 z m 11.12407,-22.849438 h 6.01301 q 2.28494,0 3.66793,-1.262732 1.44312,-1.262732 1.44312,-3.307156 0,-1.984293 -1.44312,-3.247025 -1.38299,-1.262732 -3.66793,-1.262732 h -6.01301 z m 35.77741,22.849438 V 47.527188 H 194.93849 V 37.305071 h 34.87545 v 10.222117 h -11.84562 v 31.868953 z m 48.04396,0.721561 q -6.61431,0 -11.72537,-2.765984 -5.05092,-2.826115 -7.93717,-7.696653 -2.88624,-4.930668 -2.88624,-11.244329 0,-6.373791 2.88624,-11.244329 2.88625,-4.930668 7.93717,-7.696653 5.05093,-2.826114 11.60511,-2.826114 6.61431,0 11.66524,2.826114 5.05093,2.765985 7.93718,7.696653 2.88624,4.870538 2.88624,11.244329 0,6.313661 -2.88624,11.244329 -2.82612,4.870538 -7.87705,7.696653 -5.05092,2.765984 -11.60511,2.765984 z m 0,-10.222117 q 3.24703,0 5.71236,-1.443122 2.46534,-1.503253 3.84833,-4.088847 1.38299,-2.585594 1.38299,-5.95288 0,-3.367286 -1.44312,-5.95288 -1.38299,-2.645724 -3.90846,-4.088847 -2.46533,-1.503252 -5.71236,-1.503252 -3.18689,0 -5.71236,1.503252 -2.46533,1.443123 -3.90845,4.088847 -1.38299,2.585594 -1.38299,5.95288 0,3.367286 1.44312,5.95288 1.44312,2.585594 3.90845,4.088847 2.52547,1.443122 5.77249,1.443122 z m 33.73304,2.345074 V 56.666963 l 17.55799,-19.361892 h 14.61162 z m -6.25353,7.155482 v -42.09107 h 11.12407 v 42.09107 z m 25.13439,0 -16.29526,-21.406316 8.35808,-6.49405 21.7671,27.900366 z"
       id="text2"
       style="font-size:60.1301px;font-family:Figtree;-inkscape-font-specification:'Figtree, @wght=900';font-variation-settings:'wght' 900;fill:#6811f1;stroke-width:1.07832"
       inkscape:label="Main text"
       aria-label="LIPTOK" /></g></svg>
